<svg width="66" height="65" viewBox="0 0 66 65" fill="none" xmlns="http://www.w3.org/2000/svg">
<path opacity="0.22" d="M33.2063 64.7683C51.0122 64.7683 65.4467 50.3338 65.4467 32.5278C65.4467 14.7219 51.0122 0.287415 33.2063 0.287415C15.4003 0.287415 0.96582 14.7219 0.96582 32.5278C0.96582 50.3338 15.4003 64.7683 33.2063 64.7683Z" fill="#F13D3D"/>
<path d="M33.2061 51.2238C43.5316 51.2238 51.902 42.8533 51.902 32.5278C51.902 22.2024 43.5316 13.832 33.2061 13.832C22.8807 13.832 14.5103 22.2024 14.5103 32.5278C14.5103 42.8533 22.8807 51.2238 33.2061 51.2238Z" fill="#F13D3D"/>
<path d="M33.2061 51.2238C43.5316 51.2238 51.902 42.8533 51.902 32.5278C51.902 22.2024 43.5316 13.832 33.2061 13.832C22.8807 13.832 14.5103 22.2024 14.5103 32.5278C14.5103 42.8533 22.8807 51.2238 33.2061 51.2238Z" stroke="#F13D3D" stroke-width="6" stroke-miterlimit="10"/>
</svg>
