<svg width="133" height="27" viewBox="0 0 133 27" fill="none" xmlns="http://www.w3.org/2000/svg">
<g filter="url(#filter0_d)">
<rect x="12" y="3" width="10" height="19" rx="2" fill="white"/>
<rect x="13" y="4" width="8" height="17" rx="1" stroke="black" stroke-width="2"/>
</g>
<g filter="url(#filter1_d)">
<rect y="3" width="10" height="19" rx="2" fill="white"/>
<rect x="1" y="4" width="8" height="17" rx="1" stroke="black" stroke-width="2"/>
</g>
<path d="M42.4392 7.76C41.8259 7.8 41.3792 7.98667 41.0992 8.32C40.8192 8.65333 40.6792 9.13333 40.6792 9.76V10.22H42.3792C43.1259 10.22 43.4992 10.5333 43.4992 11.16C43.4992 11.7867 43.1259 12.1 42.3792 12.1H40.6792V18.92C40.6792 19.3067 40.5592 19.6 40.3192 19.8C40.0926 20 39.7992 20.1 39.4392 20.1C39.0792 20.1 38.7792 20 38.5392 19.8C38.2992 19.6 38.1792 19.3067 38.1792 18.92V12.1H37.1792C36.4326 12.1 36.0592 11.7867 36.0592 11.16C36.0592 10.5333 36.4326 10.22 37.1792 10.22H38.1792V10.08C38.1792 8.82667 38.5059 7.84667 39.1592 7.14C39.8259 6.42 40.7592 6.01333 41.9592 5.92L42.4792 5.88C43.0126 5.84 43.3859 5.9 43.5992 6.06C43.8259 6.20667 43.9392 6.44 43.9392 6.76C43.9392 7.33333 43.6126 7.65333 42.9592 7.72L42.4392 7.76ZM52.3095 17.32C52.5362 17.32 52.7162 17.4067 52.8495 17.58C52.9962 17.7533 53.0695 17.9867 53.0695 18.28C53.0695 18.6933 52.8229 19.04 52.3295 19.32C51.8762 19.5733 51.3629 19.78 50.7895 19.94C50.2162 20.0867 49.6695 20.16 49.1495 20.16C47.5762 20.16 46.3295 19.7067 45.4095 18.8C44.4895 17.8933 44.0295 16.6533 44.0295 15.08C44.0295 14.08 44.2295 13.1933 44.6295 12.42C45.0295 11.6467 45.5895 11.0467 46.3095 10.62C47.0429 10.1933 47.8695 9.98 48.7895 9.98C49.6695 9.98 50.4362 10.1733 51.0895 10.56C51.7429 10.9467 52.2495 11.4933 52.6095 12.2C52.9695 12.9067 53.1495 13.74 53.1495 14.7C53.1495 15.2733 52.8962 15.56 52.3895 15.56H46.4895C46.5695 16.48 46.8295 17.16 47.2695 17.6C47.7095 18.0267 48.3495 18.24 49.1895 18.24C49.6162 18.24 49.9895 18.1867 50.3095 18.08C50.6429 17.9733 51.0162 17.8267 51.4295 17.64C51.8295 17.4267 52.1229 17.32 52.3095 17.32ZM48.8495 11.74C48.1695 11.74 47.6229 11.9533 47.2095 12.38C46.8095 12.8067 46.5695 13.42 46.4895 14.22H51.0095C50.9829 13.4067 50.7829 12.7933 50.4095 12.38C50.0362 11.9533 49.5162 11.74 48.8495 11.74ZM56.4345 20.12C56.0745 20.12 55.7745 20.02 55.5345 19.82C55.3079 19.6067 55.1945 19.3067 55.1945 18.92V6.98C55.1945 6.59333 55.3079 6.3 55.5345 6.1C55.7745 5.9 56.0745 5.8 56.4345 5.8C56.7945 5.8 57.0945 5.9 57.3345 6.1C57.5745 6.3 57.6945 6.59333 57.6945 6.98V18.92C57.6945 19.3067 57.5745 19.6067 57.3345 19.82C57.0945 20.02 56.7945 20.12 56.4345 20.12ZM61.5127 20.12C61.1527 20.12 60.8527 20.02 60.6127 19.82C60.386 19.6067 60.2727 19.3067 60.2727 18.92V6.98C60.2727 6.59333 60.386 6.3 60.6127 6.1C60.8527 5.9 61.1527 5.8 61.5127 5.8C61.8727 5.8 62.1727 5.9 62.4127 6.1C62.6527 6.3 62.7727 6.59333 62.7727 6.98V18.92C62.7727 19.3067 62.6527 19.6067 62.4127 19.82C62.1727 20.02 61.8727 20.12 61.5127 20.12ZM69.8108 20.16C68.8108 20.16 67.9308 19.9533 67.1708 19.54C66.4241 19.1267 65.8441 18.5333 65.4308 17.76C65.0174 16.9867 64.8108 16.0867 64.8108 15.06C64.8108 14.0333 65.0174 13.14 65.4308 12.38C65.8441 11.6067 66.4241 11.0133 67.1708 10.6C67.9308 10.1867 68.8108 9.98 69.8108 9.98C70.8108 9.98 71.6841 10.1867 72.4308 10.6C73.1908 11.0133 73.7708 11.6067 74.1708 12.38C74.5841 13.14 74.7908 14.0333 74.7908 15.06C74.7908 16.0867 74.5841 16.9867 74.1708 17.76C73.7708 18.5333 73.1908 19.1267 72.4308 19.54C71.6841 19.9533 70.8108 20.16 69.8108 20.16ZM69.7908 18.22C70.6041 18.22 71.2241 17.9533 71.6508 17.42C72.0774 16.8867 72.2908 16.1 72.2908 15.06C72.2908 14.0333 72.0774 13.2533 71.6508 12.72C71.2241 12.1733 70.6108 11.9 69.8108 11.9C69.0108 11.9 68.3908 12.1733 67.9508 12.72C67.5241 13.2533 67.3108 14.0333 67.3108 15.06C67.3108 16.1 67.5241 16.8867 67.9508 17.42C68.3774 17.9533 68.9908 18.22 69.7908 18.22ZM89.9184 10.76C90.0118 10.52 90.1451 10.34 90.3184 10.22C90.5051 10.1 90.7051 10.04 90.9184 10.04C91.2251 10.04 91.4984 10.1467 91.7384 10.36C91.9918 10.56 92.1184 10.8133 92.1184 11.12C92.1184 11.2933 92.0851 11.4467 92.0184 11.58L88.7184 19.32C88.6118 19.5733 88.4451 19.7667 88.2184 19.9C88.0051 20.0333 87.7651 20.1 87.4984 20.1C87.2451 20.1 87.0051 20.0333 86.7784 19.9C86.5651 19.7667 86.4051 19.5733 86.2984 19.32L83.9184 13.6L81.6184 19.32C81.5118 19.5733 81.3451 19.7667 81.1184 19.9C80.9051 20.0333 80.6651 20.1 80.3984 20.1C80.1451 20.1 79.9051 20.0333 79.6784 19.9C79.4518 19.7667 79.2851 19.5733 79.1784 19.32L75.8984 11.58C75.8318 11.4067 75.7984 11.26 75.7984 11.14C75.7984 10.8333 75.9318 10.5733 76.1984 10.36C76.4651 10.1333 76.7584 10.02 77.0784 10.02C77.3051 10.02 77.5118 10.08 77.6984 10.2C77.8851 10.32 78.0251 10.5 78.1184 10.74L80.4784 16.84L82.8984 10.8C83.0051 10.5467 83.1584 10.36 83.3584 10.24C83.5584 10.1067 83.7784 10.04 84.0184 10.04C84.2584 10.04 84.4784 10.1067 84.6784 10.24C84.8784 10.36 85.0318 10.5467 85.1384 10.8L87.5784 16.86L89.9184 10.76ZM105.447 9.98C106.514 9.98 107.327 10.3 107.887 10.94C108.461 11.5667 108.747 12.5867 108.747 14V18.92C108.747 19.3067 108.627 19.6067 108.387 19.82C108.161 20.02 107.861 20.12 107.487 20.12C107.127 20.12 106.827 20.02 106.587 19.82C106.361 19.6067 106.247 19.3067 106.247 18.92V14C106.247 13.2667 106.114 12.7467 105.847 12.44C105.594 12.12 105.201 11.96 104.667 11.96C104.014 11.96 103.494 12.1867 103.107 12.64C102.721 13.08 102.527 13.6867 102.527 14.46V18.92C102.527 19.3067 102.407 19.6067 102.167 19.82C101.941 20.02 101.647 20.12 101.287 20.12C100.927 20.12 100.627 20.02 100.387 19.82C100.147 19.6067 100.027 19.3067 100.027 18.92V14C100.027 13.2667 99.894 12.7467 99.6273 12.44C99.374 12.12 98.9807 11.96 98.4473 11.96C97.794 11.96 97.274 12.1867 96.8873 12.64C96.514 13.08 96.3273 13.6867 96.3273 14.46V18.92C96.3273 19.3067 96.2073 19.6067 95.9673 19.82C95.7273 20.02 95.4273 20.12 95.0673 20.12C94.7073 20.12 94.4073 20.02 94.1673 19.82C93.9407 19.6067 93.8273 19.3067 93.8273 18.92V11.18C93.8273 10.8067 93.9473 10.52 94.1873 10.32C94.4273 10.12 94.7273 10.02 95.0873 10.02C95.434 10.02 95.714 10.12 95.9273 10.32C96.154 10.5067 96.2673 10.78 96.2673 11.14V11.62C96.574 11.0867 96.9807 10.68 97.4873 10.4C98.0073 10.12 98.6007 9.98 99.2673 9.98C100.734 9.98 101.714 10.5933 102.207 11.82C102.501 11.26 102.934 10.8133 103.507 10.48C104.081 10.1467 104.727 9.98 105.447 9.98ZM115.528 9.98C116.888 9.98 117.895 10.32 118.548 11C119.215 11.6667 119.548 12.6867 119.548 14.06V18.94C119.548 19.3 119.442 19.5867 119.228 19.8C119.015 20 118.722 20.1 118.348 20.1C118.002 20.1 117.715 19.9933 117.488 19.78C117.275 19.5667 117.168 19.2867 117.168 18.94V18.5C116.942 19.02 116.582 19.4267 116.088 19.72C115.608 20.0133 115.048 20.16 114.408 20.16C113.755 20.16 113.162 20.0267 112.628 19.76C112.095 19.4933 111.675 19.1267 111.368 18.66C111.062 18.1933 110.908 17.6733 110.908 17.1C110.908 16.38 111.088 15.8133 111.448 15.4C111.822 14.9867 112.422 14.6867 113.248 14.5C114.075 14.3133 115.215 14.22 116.668 14.22H117.168V13.76C117.168 13.1067 117.028 12.6333 116.748 12.34C116.468 12.0333 116.015 11.88 115.388 11.88C115.002 11.88 114.608 11.94 114.208 12.06C113.808 12.1667 113.335 12.3267 112.788 12.54C112.442 12.7133 112.188 12.8 112.028 12.8C111.788 12.8 111.588 12.7133 111.428 12.54C111.282 12.3667 111.208 12.14 111.208 11.86C111.208 11.6333 111.262 11.44 111.368 11.28C111.488 11.1067 111.682 10.9467 111.948 10.8C112.415 10.5467 112.968 10.3467 113.608 10.2C114.262 10.0533 114.902 9.98 115.528 9.98ZM114.908 18.36C115.575 18.36 116.115 18.14 116.528 17.7C116.955 17.2467 117.168 16.6667 117.168 15.96V15.54H116.808C115.915 15.54 115.222 15.58 114.728 15.66C114.235 15.74 113.882 15.88 113.668 16.08C113.455 16.28 113.348 16.5533 113.348 16.9C113.348 17.3267 113.495 17.68 113.788 17.96C114.095 18.2267 114.468 18.36 114.908 18.36ZM127.709 9.98C128.549 9.98 129.296 10.1933 129.949 10.62C130.616 11.0467 131.129 11.6533 131.489 12.44C131.862 13.2133 132.049 14.1067 132.049 15.12C132.049 16.1333 131.862 17.02 131.489 17.78C131.129 18.54 130.622 19.1267 129.969 19.54C129.316 19.9533 128.562 20.16 127.709 20.16C127.016 20.16 126.396 20.0133 125.849 19.72C125.302 19.4267 124.882 19.02 124.589 18.5V22.58C124.589 22.9267 124.476 23.2 124.249 23.4C124.022 23.6 123.722 23.7 123.349 23.7C122.976 23.7 122.669 23.5933 122.429 23.38C122.202 23.1667 122.089 22.8867 122.089 22.54V11.2C122.089 10.84 122.196 10.5533 122.409 10.34C122.636 10.1267 122.936 10.02 123.309 10.02C123.682 10.02 123.982 10.1267 124.209 10.34C124.436 10.5533 124.549 10.84 124.549 11.2V11.7C124.842 11.1533 125.262 10.7333 125.809 10.44C126.369 10.1333 127.002 9.98 127.709 9.98ZM127.049 18.22C127.836 18.22 128.449 17.9533 128.889 17.42C129.329 16.8733 129.549 16.1067 129.549 15.12C129.549 14.1067 129.329 13.32 128.889 12.76C128.449 12.2 127.836 11.92 127.049 11.92C126.249 11.92 125.629 12.1933 125.189 12.74C124.762 13.2867 124.549 14.0667 124.549 15.08C124.549 16.08 124.762 16.8533 125.189 17.4C125.629 17.9467 126.249 18.22 127.049 18.22Z" fill="black"/>
<defs>
<filter id="filter0_d" x="12" y="3" width="11" height="21" filterUnits="userSpaceOnUse" color-interpolation-filters="sRGB">
<feFlood flood-opacity="0" result="BackgroundImageFix"/>
<feColorMatrix in="SourceAlpha" type="matrix" values="0 0 0 0 0 0 0 0 0 0 0 0 0 0 0 0 0 0 127 0"/>
<feOffset dx="1" dy="2"/>
<feColorMatrix type="matrix" values="0 0 0 0 0 0 0 0 0 0 0 0 0 0 0 0 0 0 0.25 0"/>
<feBlend mode="normal" in2="BackgroundImageFix" result="effect1_dropShadow"/>
<feBlend mode="normal" in="SourceGraphic" in2="effect1_dropShadow" result="shape"/>
</filter>
<filter id="filter1_d" x="0" y="3" width="11" height="21" filterUnits="userSpaceOnUse" color-interpolation-filters="sRGB">
<feFlood flood-opacity="0" result="BackgroundImageFix"/>
<feColorMatrix in="SourceAlpha" type="matrix" values="0 0 0 0 0 0 0 0 0 0 0 0 0 0 0 0 0 0 127 0"/>
<feOffset dx="1" dy="2"/>
<feColorMatrix type="matrix" values="0 0 0 0 0 0 0 0 0 0 0 0 0 0 0 0 0 0 0.25 0"/>
<feBlend mode="normal" in2="BackgroundImageFix" result="effect1_dropShadow"/>
<feBlend mode="normal" in="SourceGraphic" in2="effect1_dropShadow" result="shape"/>
</filter>
</defs>
</svg>
