<svg width="441" height="349" viewBox="0 0 441 349" fill="none" xmlns="http://www.w3.org/2000/svg">
<path opacity="0.5" d="M432.851 264.31L340.735 322.4C336.024 325.371 330.718 327.273 325.192 327.972C319.666 328.671 314.054 328.15 308.751 326.446L207.778 293.988C202.442 292.273 196.793 291.757 191.234 292.475C185.675 293.194 180.343 295.13 175.618 298.146L101.694 345.336C99.4257 346.769 96.8549 347.653 94.1854 347.919C91.5159 348.186 88.821 347.826 86.3146 346.869C83.8083 345.913 81.5594 344.385 79.7465 342.407C77.9335 340.43 76.6063 338.057 75.8703 335.477L12.0678 111.804C11.0449 108.217 11.211 104.396 12.5411 100.911C13.8713 97.4268 16.2941 94.4668 19.4468 92.4742L112.545 33.6363C117.706 30.3742 123.521 28.2848 129.578 27.5155C135.635 26.7462 141.787 27.3158 147.6 29.1841L245.351 60.6057C251.185 62.481 257.361 63.048 263.439 62.2666C269.517 61.4852 275.348 59.3746 280.518 56.0846L350.521 11.5366C352.788 10.0938 355.361 9.2003 358.035 8.9272C360.709 8.6541 363.409 9.00895 365.921 9.96351C368.434 10.9181 370.689 12.446 372.506 14.4256C374.324 16.4052 375.655 18.7818 376.392 21.3662L440.184 245.009C441.205 248.587 441.042 252.398 439.721 255.876C438.4 259.354 435.99 262.312 432.851 264.31Z" fill="black"/>
<path d="M424.448 258.571L345.788 308.627C340.618 311.917 334.787 314.028 328.709 314.809C322.631 315.591 316.456 315.024 310.621 313.148L212.864 281.727C207.051 279.859 200.899 279.289 194.842 280.058C188.784 280.827 182.97 282.916 177.808 286.178L93.2875 339.597C91.0195 341.03 88.4487 341.915 85.7792 342.181C83.1096 342.448 80.4148 342.088 77.9084 341.131C75.4021 340.174 73.1532 338.647 71.3402 336.669C69.5273 334.692 68.2001 332.319 67.4641 329.739L3.66221 106.065C2.63915 102.479 2.80507 98.6574 4.13514 95.173C5.4652 91.6886 7.88788 88.7286 11.0406 86.736L104.134 27.8955C109.295 24.6336 115.11 22.5443 121.167 21.7752C127.224 21.006 133.377 21.5757 139.19 23.444L236.947 54.8662C242.781 56.7415 248.956 57.3085 255.034 56.527C261.112 55.7455 266.943 53.6346 272.113 50.3444L342.116 5.79709C344.383 4.35431 346.956 3.46079 349.63 3.1877C352.304 2.9146 355.004 3.26946 357.517 4.22402C360.029 5.17857 362.284 6.70646 364.101 8.68605C365.919 10.6656 367.25 13.0423 367.987 15.6267L431.779 239.268C432.801 242.846 432.639 246.658 431.317 250.137C429.996 253.615 427.587 256.573 424.448 258.571Z" fill="white"/>
<path d="M203.48 256.443L188.854 215.175L119.734 238.839L98.1203 176.216L41.8232 187.421L81.2942 325.792C81.4687 326.399 81.8365 326.933 82.3417 327.311C82.8469 327.69 83.4619 327.894 84.0933 327.891C84.629 327.889 85.1523 327.731 85.5993 327.436L165.956 276.65C165.606 276.241 203.48 256.443 203.48 256.443Z" fill="white"/>
<path d="M424.448 258.571L345.788 308.627C340.618 311.917 334.787 314.028 328.709 314.809C322.631 315.591 316.456 315.024 310.621 313.148L212.864 281.727C207.051 279.859 200.899 279.289 194.842 280.058C188.784 280.827 182.97 282.916 177.808 286.178L93.2875 339.597C91.0195 341.03 88.4487 341.915 85.7792 342.181C83.1096 342.448 80.4148 342.088 77.9084 341.131C75.4021 340.174 73.1532 338.647 71.3402 336.669C69.5273 334.692 68.2001 332.319 67.4641 329.739L3.66221 106.065C2.63915 102.479 2.80507 98.6574 4.13514 95.173C5.4652 91.6886 7.88788 88.7286 11.0406 86.736L104.134 27.8955C109.295 24.6336 115.11 22.5443 121.167 21.7752C127.224 21.006 133.377 21.5757 139.19 23.444L236.947 54.8662C242.781 56.7415 248.956 57.3085 255.034 56.527C261.112 55.7455 266.943 53.6346 272.113 50.3444L342.116 5.79709C344.383 4.35431 346.956 3.46079 349.63 3.1877C352.304 2.9146 355.004 3.26946 357.517 4.22402C360.029 5.17857 362.284 6.70646 364.101 8.68605C365.919 10.6656 367.25 13.0423 367.987 15.6267L431.779 239.268C432.801 242.846 432.639 246.658 431.317 250.137C429.996 253.615 427.587 256.573 424.448 258.571V258.571Z" stroke="black" stroke-width="6" stroke-miterlimit="10"/>
<path d="M130.93 230.786C130.93 230.786 132.129 230.474 134.149 229.884" stroke="#363A5A" stroke-width="4" stroke-linecap="round" stroke-linejoin="round"/>
<path d="M143.874 226.77C158.08 221.829 178.926 212.76 179.176 202.034C179.511 187.784 110.449 116.492 147.577 112.182C271.535 97.7946 215.994 200.892 272.528 198.588C296.411 197.614 252.243 164.777 320.483 141.041C330.599 137.523 325.574 111.795 322.18 98.3445" stroke="#363A5A" stroke-width="4" stroke-linecap="round" stroke-linejoin="round" stroke-dasharray="10.18 15.26"/>
<path d="M320.867 93.4081C320.303 91.3897 319.931 90.1968 319.931 90.1968" stroke="#363A5A" stroke-width="4" stroke-linecap="round" stroke-linejoin="round"/>
<path d="M131.62 68.3102C133.859 66.6591 136.685 66.0152 139.418 66.5333L167.905 71.9329C176.123 73.4906 182.396 64.7106 178.26 57.4408C177.086 55.3781 175.205 53.8106 172.964 53.0288L132.059 38.7574C129.492 37.862 126.774 37.481 124.06 37.6362C121.346 37.7914 118.689 38.4797 116.24 39.6619L18.7223 98.8972C18.1986 99.231 17.7962 99.7246 17.5746 100.305C17.3531 100.885 17.3241 101.521 17.492 102.119L30.5714 147.971C32.0485 153.15 37.3607 156.229 42.5881 154.936L66.3681 149.056C71.7367 147.729 75.0085 142.296 73.6708 136.929L69.8393 121.561C68.8595 117.631 70.3472 113.498 73.607 111.094L131.62 68.3102Z" fill="#008AF5" stroke="#0090FF" stroke-width="4" stroke-linecap="round" stroke-linejoin="round"/>
<path d="M226.1 219.705C223.522 212.196 230.301 204.822 238 206.76L245.949 208.762C248.951 209.518 251.434 211.622 252.673 214.46L258.156 227.027C261.324 234.289 255.191 242.176 247.372 240.894L238.439 239.43C234.806 238.834 231.794 236.29 230.598 232.808L226.1 219.705Z" fill="#F5B206" stroke="#ECB072" stroke-width="4" stroke-linecap="round" stroke-linejoin="round"/>
<path d="M320.497 100.689C295.639 100.689 275.488 93.4803 275.488 84.5872C275.488 75.6942 295.639 68.4844 320.497 68.4844C345.355 68.4844 365.506 75.6942 365.506 84.5872C365.506 93.4803 345.355 100.689 320.497 100.689Z" fill="#EAF4F7"/>
<path d="M336.452 200C335.39 195.315 337.809 190.537 342.213 188.62L380.701 171.866C386.102 169.515 392.356 172.319 394.193 177.917L410.399 227.287C411.883 231.808 409.975 236.749 405.838 239.1L332.41 280.828C326.999 283.904 320.123 281.341 318.044 275.474L308.176 247.627C306.552 243.043 308.461 237.955 312.7 235.571L334.419 223.354C338.274 221.186 340.247 216.742 339.269 212.428L336.452 200Z" fill="#FFB906" stroke="#F5B206" stroke-width="4" stroke-linecap="round" stroke-linejoin="round"/>
</svg>
