<svg width="139" height="162" viewBox="0 0 139 162" fill="none" xmlns="http://www.w3.org/2000/svg">
<path d="M135.765 71.0734C135.765 32.4052 104.38 1.26728 66.3489 3.07492C32.2968 4.6939 3.26758 33.7031 3.26758 68.7199C3.26758 119.375 69.4986 158.433 69.4986 158.433C69.4986 158.433 135.765 119.375 135.765 71.0734Z" fill="#F13D3D"/>
<path d="M93.6878 138.832C88.4654 142.906 82.026 145.108 75.4023 145.085C68.7787 145.063 62.3546 142.816 57.1604 138.706C37.5587 123.185 9.20847 95.0048 9.20847 61.8646C9.25731 47.7936 13.9116 34.1255 22.46 22.9489C10.7037 34.8209 3.26709 51 3.26709 68.7198C3.26709 119.375 69.4981 158.433 69.4981 158.433C69.4981 158.433 96.5083 142.511 116.041 118.427C109.147 125.814 101.672 132.637 93.6878 138.832V138.832Z" fill="#CD3C27"/>
<path d="M66.3489 3.07492C54.4092 3.69009 42.8651 7.55886 32.9658 14.2626C40.7613 10.5034 49.2315 8.34568 57.8754 7.91713C95.906 6.11083 127.292 37.2468 127.292 75.9156C127.292 113.788 86.5541 145.976 68.9607 158.111C69.3053 158.321 69.4959 158.435 69.4959 158.435C69.4959 158.435 135.764 119.375 135.764 71.0734C135.765 32.4052 104.38 1.26728 66.3489 3.07492Z" fill="#F07378"/>
<path d="M69.4974 97.1136C64.1047 97.1137 58.8331 95.5147 54.3492 92.5188C49.8653 89.5229 46.3704 85.2646 44.3067 80.2824C42.2429 75.3003 41.7028 69.818 42.7548 64.5289C43.8068 59.2398 46.4035 54.3815 50.2167 50.5682C54.0298 46.755 58.8881 44.1581 64.1772 43.106C69.4663 42.0539 74.9485 42.5938 79.9307 44.6575C84.9129 46.7211 89.1713 50.2158 92.1673 54.6997C95.1634 59.1835 96.7625 64.4551 96.7625 69.8478C96.7625 77.079 93.89 84.0141 88.7768 89.1274C83.6636 94.2407 76.7286 97.1134 69.4974 97.1136Z" fill="white"/>
<path d="M69.4974 97.1136C64.1047 97.1137 58.8331 95.5147 54.3492 92.5188C49.8653 89.5229 46.3704 85.2646 44.3067 80.2824C42.2429 75.3003 41.7028 69.818 42.7548 64.5289C43.8068 59.2398 46.4035 54.3815 50.2167 50.5682C54.0298 46.755 58.8881 44.1581 64.1772 43.106C69.4663 42.0539 74.9485 42.5938 79.9307 44.6575C84.9129 46.7211 89.1713 50.2158 92.1673 54.6997C95.1634 59.1835 96.7625 64.4551 96.7625 69.8478C96.7625 77.079 93.89 84.0141 88.7768 89.1274C83.6636 94.2407 76.7286 97.1134 69.4974 97.1136Z" stroke="#363A5A" stroke-width="6" stroke-miterlimit="10"/>
<path d="M135.765 71.0734C135.765 32.4052 104.38 1.26728 66.3489 3.07492C32.2968 4.6939 3.26758 33.7031 3.26758 68.7199C3.26758 119.375 69.4986 158.433 69.4986 158.433C69.4986 158.433 135.765 119.375 135.765 71.0734Z" stroke="#363A5A" stroke-width="6" stroke-linecap="round" stroke-linejoin="round"/>
</svg>
