<svg width="56" height="36" viewBox="0 0 56 36" fill="none" xmlns="http://www.w3.org/2000/svg">
<path d="M42.9083 35.172C35.8123 35.172 29.5723 29.304 29.5723 22.616C29.5723 19.056 31.8403 14.132 36.0003 12.896V2.81602C36.0003 2.22001 36.2643 1.64801 36.7363 1.26001C37.2003 0.876012 37.8163 0.720015 38.4003 0.844015C51.6963 3.52002 56.0003 14.572 56.0003 19.5V22.592C56.0003 29.42 50.0043 35.172 42.9083 35.172ZM40.0003 5.41601V14.628C40.0003 15.728 39.1003 16.628 38.0003 16.628C35.4283 16.628 33.5723 20.212 33.5723 22.62C33.5723 27.188 37.9403 31.184 42.9083 31.184C47.7523 31.184 52.0003 27.188 52.0003 22.62V19.536C52.0003 16.104 48.9163 8.30401 40.0003 5.41601V5.41601Z" fill="black" fill-opacity="0.18"/>
<path d="M14.312 35.172C7.73198 35.172 0.375977 29.804 0.375977 22.616C0.375977 18.796 3.77998 14.084 7.99998 12.892V2.81602C7.99998 2.22001 8.26798 1.64801 8.73198 1.26001C9.19598 0.876012 9.81198 0.720015 10.4 0.844015C23.7 3.52002 28 14.572 28 19.5V22.592C28 29.304 21.6 35.172 14.312 35.172ZM12 5.41601V14.628C12 15.728 11.1 16.628 9.99998 16.628C7.15598 16.628 4.37598 20.416 4.37598 22.62C4.37598 27.44 9.71598 31.184 14.312 31.184C18.892 31.184 24 27.524 24 22.62V19.536C24 16.104 20.92 8.30401 12 5.41601V5.41601Z" fill="black" fill-opacity="0.18"/>
</svg>
