<svg width="56" height="36" viewBox="0 0 56 36" fill="none" xmlns="http://www.w3.org/2000/svg">
<path d="M18 35.1721C17.868 35.1721 17.736 35.1601 17.604 35.1321C4.3 32.4521 0 21.4001 0 16.4761V13.3841C0 6.58013 5.912 0.828125 12.904 0.828125C20.032 0.828125 26.056 6.58013 26.056 13.3841C26.056 17.0001 24.16 21.9041 20 23.1041V33.1801C20 33.7681 19.732 34.3481 19.268 34.7281C18.908 35.0161 18.456 35.1721 18 35.1721V35.1721ZM12.904 4.82812C8.076 4.82812 4 8.74413 4 13.3841V16.4681C4 19.8841 7.08 27.6881 16 30.5761V21.3761C16 20.2721 16.896 19.3761 18 19.3761C21.032 19.3761 22.056 15.2561 22.056 13.3761C22.056 8.82012 17.78 4.82812 12.904 4.82812V4.82812Z" fill="black" fill-opacity="0.18"/>
<path d="M46 35.1721C45.868 35.1721 45.736 35.1601 45.604 35.1321C32.3 32.4521 28 21.4001 28 16.4761V13.3841C28 6.69613 34.308 0.828125 41.5 0.828125C48.824 0.828125 55.252 6.69613 55.252 13.3841C55.252 17.0881 52.744 22.0481 48 23.1561V33.1721C48 33.7601 47.732 34.3401 47.268 34.7201C46.908 35.0161 46.456 35.1721 46 35.1721ZM41.5 4.82812C36.528 4.82812 32 8.90813 32 13.3841V16.4681C32 19.8841 35.08 27.6881 44 30.5761V21.3761C44 20.2721 44.896 19.3761 46 19.3761C49.664 19.3761 51.252 15.4041 51.252 13.3761C51.252 8.56812 46.008 4.82812 41.5 4.82812V4.82812Z" fill="black" fill-opacity="0.18"/>
</svg>
