<svg width="381" height="441" viewBox="0 0 381 441" fill="none" xmlns="http://www.w3.org/2000/svg">
<path fill-rule="evenodd" clip-rule="evenodd" d="M371.02 245.64C365.701 246.162 360.382 246.683 355.063 247.206C329.59 249.152 304.127 253.216 278.849 255.656C278.22 254.631 276.988 254.8 276.24 255.512C273.717 255.291 270.891 253.363 268.606 255.369C268.531 255.358 268.457 255.346 268.382 255.339C264.314 247.53 261.502 239.202 258.773 230.863C257.031 225.736 254.687 220.772 250.356 217.33C242.964 212.199 226.029 201.795 217.349 202.232C217.205 200.678 216.481 199.076 215.291 198.041C217.913 193.572 207.431 190.656 206.691 191.174C207.165 176.242 200.142 163.275 184.654 160.301C170.779 157.41 151.044 156.924 143.582 171.424C142.761 171.332 134.376 171.288 133.565 171.379C132.304 169.782 118.451 184.92 124.129 190.19C73.3701 212.644 44.5086 209.965 30.4594 273.089C28.5601 279.018 28.4218 285.507 26.4162 291.305C19.2808 307.966 13.4934 325.708 12.053 343.837C8.5743 344.729 8.17423 350.862 12.2037 351.749C13.7428 352.089 15.0299 352.552 16.1522 353.431C15.2749 368.287 18.8681 402.226 21.1321 402.121C25.7484 416.813 46.3396 420.959 60.9176 415.796C58.4045 420.524 60.9176 423.497 60.9176 426.023C113.373 428.007 170.727 426.864 223.168 429.586C229.876 429.491 236.931 431.234 243.548 430.23C247.583 429.263 247.589 422.919 243.496 422.134L261.38 418.25C260.98 418.099 268.752 412.93 274.626 403.27C280.093 392.465 276.372 379.421 278.849 367.667C298.197 366.085 317.865 365.409 337.002 362.132C339.611 369.939 350.906 360.602 354.496 356.846C354.492 356.84 354.487 356.835 354.483 356.829C356.22 356.354 357.614 354.725 357.66 352.797C358.879 351.056 359.135 348.602 357.966 346.92C363.322 316.016 371.487 284.463 374.438 253.268C375.481 253.037 376.463 252.58 377.296 251.875L377.229 251.808C378.64 250.234 378.915 247.519 376.562 246.182C374.664 245.102 373.079 245.437 371.02 245.64Z" fill="#D08B5B"/>
<path fill-rule="evenodd" clip-rule="evenodd" d="M168.733 361.305L172.83 363.912L206.353 374.714L226.84 377.322L243.601 374.714V403.395L246.953 430.214C245.464 432.945 231.309 432.945 204.491 430.214C187.395 428.472 124.913 427.628 110.687 427.256L109.881 427.234C93.1643 426.752 76.651 426.752 60.3413 427.234V417.177L106.901 394.083L148.619 370.617L168.733 361.305ZM144.979 169.08L148.058 171.379L141.336 182.423L174.082 208.911V230.067L184.449 239.872L190.375 230.067L198.725 218.963L204.658 200.963L202.638 189.105L206.701 188.722C206.721 189.532 206.717 190.35 206.691 191.174C207.431 190.656 217.913 193.572 215.291 198.041C216.481 199.076 217.205 200.678 217.349 202.232C226.028 201.795 242.964 212.199 250.356 217.33C254.687 220.772 257.031 225.736 258.773 230.863L259.183 232.114L259.606 233.398L260.033 234.681C262.39 241.734 264.935 248.723 268.382 255.339C268.457 255.346 268.531 255.358 268.605 255.369C270.89 253.363 273.717 255.291 276.24 255.512C276.97 254.817 278.163 254.64 278.804 255.586L278.849 255.656L247.422 261.847L226.69 334.571L208.635 319.915L198.944 321.357L173.351 330.587L143.585 338.319L75.6336 357.053H66.9802L16.6268 344.893L12.0889 343.395C13.5874 325.42 19.3387 307.831 26.416 291.305C28.4216 285.507 28.5599 279.018 30.4593 273.089C44.5085 209.965 73.37 212.644 124.129 190.19C118.451 184.92 132.304 169.782 133.565 171.379L133.644 171.372L133.816 171.363L134.038 171.355C136.018 171.298 142.845 171.342 143.581 171.424C144.008 170.595 144.476 169.814 144.979 169.08Z" fill="#FFB906"/>
<path d="M168.733 361.305L170.343 358.774L168.96 357.894L167.472 358.583L168.733 361.305ZM172.83 363.912L171.219 366.443L171.544 366.65L171.91 366.768L172.83 363.912ZM206.353 374.714L205.433 377.57L205.698 377.655L205.974 377.69L206.353 374.714ZM226.84 377.322L226.461 380.298L226.882 380.351L227.301 380.286L226.84 377.322ZM243.601 374.714H246.601V371.212L243.14 371.75L243.601 374.714ZM243.601 403.395H240.601V403.582L240.624 403.767L243.601 403.395ZM246.953 430.214L249.587 431.65L250.05 430.801L249.93 429.842L246.953 430.214ZM204.491 430.214L204.187 433.198L204.187 433.198L204.491 430.214ZM110.687 427.256L110.605 430.255L110.609 430.255L110.687 427.256ZM109.881 427.234L109.795 430.233L109.799 430.233L109.881 427.234ZM60.3413 427.234H57.3413V430.324L60.4299 430.233L60.3413 427.234ZM60.3413 417.177L59.0082 414.489L57.3413 415.316V417.177H60.3413ZM106.901 394.083L108.234 396.771L108.304 396.736L108.372 396.698L106.901 394.083ZM148.619 370.617L147.358 367.895L147.251 367.944L147.148 368.002L148.619 370.617ZM144.979 169.08L146.774 166.676L144.273 164.809L142.506 167.382L144.979 169.08ZM148.058 171.379L150.621 172.939L152.04 170.608L149.853 168.975L148.058 171.379ZM141.336 182.423L138.774 180.864L137.409 183.105L139.449 184.756L141.336 182.423ZM174.082 208.911H177.082V207.479L175.969 206.578L174.082 208.911ZM174.082 230.067H171.082V231.359L172.02 232.247L174.082 230.067ZM184.449 239.872L182.387 242.052L185.091 244.609L187.016 241.424L184.449 239.872ZM190.375 230.067L187.977 228.264L187.886 228.385L187.807 228.515L190.375 230.067ZM198.725 218.963L201.122 220.766L201.419 220.371L201.574 219.902L198.725 218.963ZM204.658 200.963L207.508 201.903L207.741 201.194L207.616 200.459L204.658 200.963ZM202.638 189.105L202.357 186.118L199.138 186.421L199.681 189.609L202.638 189.105ZM206.701 188.722L209.7 188.649L209.622 185.433L206.42 185.735L206.701 188.722ZM206.691 191.174L203.693 191.079L203.503 197.072L208.413 193.631L206.691 191.174ZM215.291 198.041L212.704 196.524L211.444 198.671L213.322 200.305L215.291 198.041ZM217.349 202.232L214.362 202.508L214.627 205.373L217.5 205.228L217.349 202.232ZM250.356 217.33L252.222 214.981L252.146 214.921L252.066 214.865L250.356 217.33ZM258.773 230.863L261.623 229.928L261.618 229.913L261.613 229.898L258.773 230.863ZM259.183 232.114L256.332 233.048L256.334 233.053L259.183 232.114ZM259.606 233.398L256.757 234.337L256.759 234.344L259.606 233.398ZM260.033 234.681L257.186 235.627L257.188 235.631L260.033 234.681ZM268.382 255.339L265.722 256.725L266.476 258.172L268.1 258.326L268.382 255.339ZM268.605 255.369L268.188 258.339L269.55 258.531L270.584 257.623L268.605 255.369ZM276.24 255.512L275.978 258.501L277.327 258.619L278.308 257.685L276.24 255.512ZM278.804 255.586L281.325 253.959L281.306 253.931L281.288 253.903L278.804 255.586ZM278.849 255.656L279.429 258.599L283.768 257.744L281.369 254.029L278.849 255.656ZM247.422 261.847L246.843 258.903L245.041 259.258L244.537 261.024L247.422 261.847ZM226.69 334.571L224.799 336.9L228.329 339.765L229.575 335.394L226.69 334.571ZM208.635 319.915L210.526 317.586L209.5 316.754L208.194 316.948L208.635 319.915ZM198.944 321.357L198.502 318.389L198.207 318.433L197.926 318.535L198.944 321.357ZM173.351 330.587L174.105 333.491L174.239 333.456L174.369 333.409L173.351 330.587ZM143.585 338.319L142.831 335.415L142.809 335.421L142.788 335.427L143.585 338.319ZM75.6336 357.053V360.053H76.0396L76.431 359.945L75.6336 357.053ZM66.9802 357.053L66.276 359.969L66.6231 360.053H66.9802V357.053ZM16.6268 344.893L15.6864 347.742L15.8031 347.78L15.9226 347.809L16.6268 344.893ZM12.0889 343.395L9.09924 343.146L8.90277 345.503L11.1485 346.244L12.0889 343.395ZM26.416 291.305L29.1738 292.486L29.2161 292.387L29.2512 292.286L26.416 291.305ZM30.4593 273.089L33.3163 274.004L33.358 273.874L33.3876 273.74L30.4593 273.089ZM124.129 190.19L125.342 192.934L129.508 191.091L126.17 187.992L124.129 190.19ZM133.565 171.379L131.21 173.238L132.213 174.508L133.824 174.368L133.565 171.379ZM133.644 171.372L133.484 168.377L133.435 168.379L133.385 168.384L133.644 171.372ZM133.816 171.363L133.712 168.365L133.684 168.366L133.656 168.367L133.816 171.363ZM134.038 171.355L133.951 168.357L133.942 168.357L133.933 168.357L134.038 171.355ZM143.581 171.424L143.246 174.406L145.302 174.637L146.249 172.797L143.581 171.424ZM167.122 363.836L171.219 366.443L174.441 361.381L170.343 358.774L167.122 363.836ZM171.91 366.768L205.433 377.57L207.273 371.859L173.75 361.057L171.91 366.768ZM205.974 377.69L226.461 380.298L227.218 374.346L206.732 371.738L205.974 377.69ZM227.301 380.286L244.062 377.679L243.14 371.75L226.378 374.357L227.301 380.286ZM240.601 374.714V403.395H246.601V374.714H240.601ZM240.624 403.767L243.977 430.586L249.93 429.842L246.578 403.023L240.624 403.767ZM244.32 428.777C244.597 428.27 244.923 428.219 244.593 428.364C244.32 428.484 243.802 428.645 242.945 428.795C241.243 429.092 238.697 429.262 235.22 429.262C228.298 429.262 218.176 428.592 204.795 427.229L204.187 433.198C217.624 434.567 227.988 435.262 235.22 435.262C238.82 435.262 241.769 435.091 243.977 434.705C245.076 434.514 246.119 434.248 247.009 433.856C247.843 433.489 248.938 432.841 249.587 431.65L244.32 428.777ZM204.795 427.229C187.549 425.473 124.826 424.624 110.765 424.257L110.609 430.255C125 430.631 187.241 431.472 204.187 433.198L204.795 427.229ZM110.769 424.257L109.963 424.235L109.799 430.233L110.605 430.255L110.769 424.257ZM109.968 424.235C93.1938 423.751 76.6222 423.751 60.2526 424.235L60.4299 430.233C76.6799 429.752 93.1347 429.752 109.795 430.233L109.968 424.235ZM63.3413 427.234V417.177H57.3413V427.234H63.3413ZM61.6743 419.864L108.234 396.771L105.568 391.396L59.0082 414.489L61.6743 419.864ZM108.372 396.698L150.09 373.232L147.148 368.002L105.43 391.468L108.372 396.698ZM149.879 373.339L169.993 364.027L167.472 358.583L147.358 367.895L149.879 373.339ZM143.185 171.484L146.263 173.783L149.853 168.975L146.774 166.676L143.185 171.484ZM145.496 169.819L138.774 180.864L143.899 183.983L150.621 172.939L145.496 169.819ZM139.449 184.756L172.195 211.243L175.969 206.578L143.223 180.091L139.449 184.756ZM171.082 208.911V230.067H177.082V208.911H171.082ZM172.02 232.247L182.387 242.052L186.51 237.693L176.143 227.888L172.02 232.247ZM187.016 241.424L192.942 231.619L187.807 228.515L181.881 238.321L187.016 241.424ZM192.772 231.87L201.122 220.766L196.327 217.16L187.977 228.264L192.772 231.87ZM201.574 219.902L207.508 201.903L201.809 200.024L195.875 218.024L201.574 219.902ZM207.616 200.459L205.595 188.601L199.681 189.609L201.701 201.467L207.616 200.459ZM202.919 192.092L206.983 191.709L206.42 185.735L202.357 186.118L202.919 192.092ZM203.702 188.795C203.72 189.548 203.717 190.31 203.693 191.079L209.69 191.269C209.718 190.391 209.721 189.517 209.7 188.649L203.702 188.795ZM208.413 193.631C207.996 193.923 207.614 194.024 207.462 194.059C207.28 194.101 207.146 194.11 207.093 194.113C206.988 194.118 206.961 194.109 207.052 194.119C207.217 194.137 207.53 194.192 207.965 194.304C208.829 194.528 209.915 194.911 210.883 195.407C211.916 195.937 212.49 196.431 212.7 196.73C212.777 196.84 212.724 196.81 212.713 196.661C212.7 196.489 212.762 196.424 212.704 196.524L217.879 199.559C218.476 198.541 218.784 197.407 218.697 196.222C218.611 195.06 218.164 194.073 217.615 193.29C216.574 191.802 214.973 190.761 213.62 190.068C212.203 189.341 210.693 188.813 209.467 188.495C208.856 188.338 208.248 188.215 207.71 188.155C207.448 188.126 207.123 188.103 206.784 188.121C206.62 188.129 205.769 188.157 204.97 188.717L208.413 193.631ZM213.322 200.305C213.848 200.762 214.279 201.609 214.362 202.508L220.336 201.955C220.132 199.747 219.113 197.39 217.26 195.778L213.322 200.305ZM217.5 205.228C219.108 205.147 221.37 205.576 224.163 206.525C226.903 207.457 229.925 208.809 232.971 210.365C239.062 213.475 245.026 217.282 248.645 219.794L252.066 214.865C248.294 212.247 242.094 208.286 235.7 205.021C232.503 203.388 229.202 201.901 226.094 200.845C223.04 199.806 219.93 199.098 217.198 199.236L217.5 205.228ZM248.489 219.678C252.129 222.572 254.242 226.855 255.932 231.828L261.613 229.898C259.819 224.617 257.244 218.973 252.222 214.981L248.489 219.678ZM255.922 231.798L256.332 233.048L262.033 231.179L261.623 229.928L255.922 231.798ZM256.334 233.053L256.757 234.337L262.455 232.458L262.032 231.174L256.334 233.053ZM256.759 234.344L257.186 235.627L262.88 233.734L262.453 232.451L256.759 234.344ZM257.188 235.631C259.556 242.719 262.161 249.892 265.722 256.725L271.043 253.953C267.709 247.554 265.224 240.748 262.878 233.73L257.188 235.631ZM268.1 258.326C268.071 258.323 268.056 258.32 268.074 258.323C268.083 258.324 268.093 258.326 268.113 258.329C268.131 258.331 268.159 258.335 268.188 258.339L269.023 252.398C268.859 252.375 269.125 252.412 268.914 252.382C268.857 252.374 268.768 252.362 268.664 252.352L268.1 258.326ZM270.584 257.623C270.706 257.516 270.838 257.367 271.751 257.548C272.263 257.65 272.755 257.799 273.508 258.007C274.176 258.191 275.053 258.42 275.978 258.501L276.501 252.523C276.165 252.494 275.743 252.399 275.1 252.222C274.543 252.068 273.712 251.82 272.916 251.663C271.214 251.326 268.79 251.215 266.627 253.114L270.584 257.623ZM278.308 257.685C278.211 257.777 278.006 257.922 277.637 257.932C277.433 257.938 277.173 257.899 276.904 257.766C276.629 257.63 276.435 257.439 276.321 257.269L281.288 253.903C280.356 252.529 278.901 251.895 277.473 251.935C276.165 251.97 274.999 252.551 274.172 253.339L278.308 257.685ZM276.284 257.213L276.329 257.283L281.369 254.029L281.325 253.959L276.284 257.213ZM278.269 252.712L246.843 258.903L248.002 264.79L279.429 258.599L278.269 252.712ZM244.537 261.024L223.805 333.749L229.575 335.394L250.307 262.669L244.537 261.024ZM228.581 332.242L210.526 317.586L206.744 322.245L224.799 336.9L228.581 332.242ZM208.194 316.948L198.502 318.389L199.385 324.324L209.076 322.883L208.194 316.948ZM197.926 318.535L172.333 327.765L174.369 333.409L199.962 324.179L197.926 318.535ZM172.597 327.684L142.831 335.415L144.339 341.223L174.105 333.491L172.597 327.684ZM142.788 335.427L74.8363 354.161L76.431 359.945L144.383 341.211L142.788 335.427ZM75.6336 354.053H66.9802V360.053H75.6336V354.053ZM67.6844 354.137L17.331 341.977L15.9226 347.809L66.276 359.969L67.6844 354.137ZM17.5671 342.044L13.0292 340.546L11.1485 346.244L15.6864 347.742L17.5671 342.044ZM15.0785 343.645C16.5393 326.121 22.1582 308.868 29.1738 292.486L23.6583 290.124C16.5192 306.794 10.6355 324.718 9.09924 343.146L15.0785 343.645ZM29.2512 292.286C30.3475 289.117 30.9178 285.805 31.4354 282.747C31.967 279.607 32.4444 276.726 33.3163 274.004L27.6023 272.173C26.5749 275.381 26.0334 278.71 25.5196 281.746C24.9918 284.864 24.4902 287.696 23.5809 290.324L29.2512 292.286ZM33.3876 273.74C40.3 242.683 50.7016 228.371 65.1711 218.898C72.5439 214.071 81.0919 210.423 91.137 206.537C101.116 202.677 112.566 198.586 125.342 192.934L122.915 187.447C110.312 193.022 99.1195 197.016 88.9724 200.941C78.8909 204.841 69.8283 208.678 61.8847 213.878C45.7215 224.46 34.6678 240.371 27.5309 272.437L33.3876 273.74ZM126.17 187.992C125.903 187.744 125.542 187.168 125.945 185.513C126.343 183.879 127.36 181.888 128.719 179.906C130.058 177.954 131.585 176.221 132.792 175.111C133.416 174.536 133.836 174.238 134.021 174.135C134.138 174.07 133.976 174.187 133.617 174.239C133.227 174.295 132.057 174.311 131.21 173.238L135.919 169.52C134.915 168.248 133.489 168.195 132.761 168.3C132.063 168.401 131.479 168.684 131.107 168.89C130.316 169.33 129.491 169.994 128.728 170.696C127.16 172.139 125.342 174.221 123.771 176.512C122.219 178.775 120.758 181.456 120.116 184.093C119.479 186.709 119.516 190.001 122.088 192.389L126.17 187.992ZM133.824 174.368L133.904 174.361L133.385 168.384L133.306 168.39L133.824 174.368ZM133.805 174.368L133.977 174.359L133.656 168.367L133.484 168.377L133.805 174.368ZM133.921 174.361L134.142 174.354L133.933 168.357L133.712 168.365L133.921 174.361ZM134.125 174.354C135.054 174.327 137.205 174.323 139.256 174.337C140.271 174.344 141.243 174.355 142.001 174.37C142.381 174.377 142.698 174.385 142.938 174.393C143.221 174.403 143.29 174.411 143.246 174.406L143.917 168.443C143.345 168.379 141.225 168.351 139.297 168.337C137.255 168.323 135.002 168.326 133.951 168.357L134.125 174.354ZM146.249 172.797C146.619 172.079 147.021 171.407 147.453 170.778L142.506 167.382C141.93 168.221 141.398 169.111 140.914 170.052L146.249 172.797Z" fill="#22252B"/>
<path fill-rule="evenodd" clip-rule="evenodd" d="M376.043 247.848L375.107 253.064C374.884 253.137 374.658 253.199 374.429 253.25C374.134 256.359 373.788 259.473 373.398 262.589L367.595 294.935C366.594 300.657 365.644 306.392 364.7 312.128L363.45 318.29L362.676 322.12C361.005 330.414 359.382 338.681 357.957 346.902C358.172 347.211 358.339 347.547 358.46 347.899L358.351 348.363L358.274 348.672L358.196 348.977C357.072 353.298 355.116 357.488 350.507 358.76C347.03 359.718 343.215 359.805 339.625 360.184L339.227 360.227L276.405 367.292C268.814 368.145 261.227 369.024 253.641 369.913L247.064 370.684C237.897 371.746 228.678 372.581 219.646 374.503C219.314 374.573 219.039 374.706 218.815 374.88C220.634 367.996 222.375 361.12 223.952 354.166C225.728 346.339 227.414 338.497 229.314 330.698C233.14 314.987 237.43 299.379 242.126 283.905C243.112 280.657 244.12 277.416 245.151 274.182L245.874 271.922L246.43 270.121C247.291 267.374 248.357 264.551 250.882 263.037C253.837 261.263 257.867 260.969 261.218 260.356L263.488 259.93C266.884 259.296 270.284 258.687 273.688 258.102C289.986 255.298 306.376 253.05 322.827 251.36C339.946 249.602 357.124 248.46 374.323 247.902L376.043 247.848ZM220.117 355.697L220.277 355.71L217.93 374.469C217.555 374.206 217.079 374.045 216.498 374.047C208.8 374.069 201.422 371.609 194.285 368.905L193.199 368.491L190.169 367.326C187.089 366.146 183.992 364.992 180.838 364.035L179.563 363.65L178.915 363.459C176.527 362.761 174.015 362.128 171.53 361.97L171.192 361.951L171.915 361.572C172.021 361.516 172.114 361.454 172.196 361.387C173.563 361.488 174.933 361.461 176.376 361.201C179.088 360.713 181.726 359.769 184.147 358.455L185.229 357.869L185.672 357.634L185.964 357.483L186.255 357.335C188.335 356.299 190.324 355.649 192.951 356.201C195.932 356.829 198.545 358.436 201.232 359.794L201.709 360.031L202.03 360.186L202.357 360.34L202.688 360.491C206.322 362.126 212.106 363.891 213.499 358.95C214.059 356.965 213.621 355.106 212.649 353.476C214.46 353.319 217.694 355.453 220.117 355.697Z" fill="white"/>
<path fill-rule="evenodd" clip-rule="evenodd" d="M144.549 168.057C146.13 164.085 151.472 165.629 150.877 169.801C150.52 172.301 149.151 174.94 147.922 177.131C146.92 178.914 145.778 180.654 144.23 181.991C146.986 184.562 149.847 187.04 152.781 189.393C155.982 191.959 159.348 194.325 162.828 196.5C165.879 198.407 169.067 200.097 171.943 202.273C174.617 204.296 177.053 206.729 178.293 209.905C179.613 213.287 179.04 216.78 178.067 220.16L177.955 220.542C176.962 223.891 175.242 227.927 177.627 231.082C178.841 232.688 180.606 233.826 182.129 235.11C183.484 236.251 184.755 237.492 185.921 238.825C188.463 241.731 190.531 245.001 191.836 248.645L191.952 248.976C193.071 252.201 193.888 256.153 192.377 259.319C191.943 260.227 190.545 259.932 190.302 259.048C189.753 257.046 189.782 254.949 189.321 252.918C188.842 250.806 188.045 248.801 187.004 246.905C184.99 243.235 182.262 240.101 179.039 237.451L178.074 236.667C175.56 234.603 173.25 232.414 172.739 229C172.193 225.346 173.657 221.865 174.598 218.407C175.254 215.997 175.468 213.687 174.76 211.509C173.894 212.923 172.712 214.265 171.777 215.461C169.916 217.846 168.037 220.215 166.163 222.59C164.242 225.024 162.368 227.497 160.584 230.034C159.786 231.169 158.996 232.31 158.209 233.453C157.617 234.312 156.792 235.17 156.146 236.046C156.303 236.515 156.291 237.055 156.007 237.439C152.586 242.061 147.719 232.416 146.449 229.98C143.864 225.017 141.94 219.745 139.347 214.783C136.659 209.64 133.599 204.634 130.188 199.939C128.125 197.099 125.813 194.431 123.925 191.501C119.479 195.532 113.628 198.235 108.254 200.686C102.349 203.378 96.215 205.578 90.161 207.914L88.3727 208.608C77.9415 212.679 67.2554 217.152 58.5851 224.383C48.3967 232.88 42.3692 244.723 37.882 256.988C32.7164 271.106 28.443 285.606 24.4593 300.097C22.4207 307.511 20.4864 314.959 18.668 322.43C17.0656 329.013 15.7373 335.661 13.8824 342.176C17.6444 342.043 21.935 343.499 25.1469 343.919C39.785 345.835 54.226 348.89 68.0461 354.178C69.7532 354.831 70.2471 356.536 69.8754 357.918C70.8598 357.64 71.8435 357.359 72.828 357.082C71.7494 355.43 72.2642 352.475 72.349 350.643L72.3542 350.517C72.4414 348.076 72.7062 345.633 72.8779 343.196C73.2049 338.552 73.6306 333.942 74.1966 329.324L74.341 328.169C74.9824 323.145 75.4566 318.092 76.1565 313.076L76.2392 312.502C75.9036 311.219 75.5128 309.952 75.1027 308.69C74.0099 305.328 72.4674 302.164 71.1157 298.908C70.9563 298.525 71.5023 298.305 71.7575 298.534C74.0467 300.594 75.8652 303.206 77.326 305.939C77.3514 305.81 77.3737 305.681 77.4002 305.552L77.5669 304.731C77.978 302.73 78.478 300.625 79.7054 299.002C79.8362 298.83 80.0947 298.794 80.2184 299.002C81.3932 300.99 81.5246 303.508 81.7053 305.77C81.9098 308.329 81.9355 310.92 81.8994 313.486C81.829 318.501 81.4755 323.53 81.1939 328.536C80.9176 333.456 80.3751 338.313 79.6759 343.185L79.543 344.098C79.2013 346.417 78.9215 348.764 78.4706 351.067L78.3433 351.694C78.1023 352.836 77.954 354.446 77.4743 355.784C89.8175 352.341 102.18 348.977 114.565 345.672C123.517 343.283 132.478 340.93 141.436 338.561C141.908 337.709 142.497 336.914 143.231 336.203C145.651 333.859 148.858 332.814 151.8 334.618C152.039 334.765 152.059 335.139 151.8 335.281C151.236 335.589 150.672 335.905 150.117 336.234L155.496 334.778C159.516 333.688 163.584 332.327 167.699 331.567C175.278 327.827 183.429 325.12 191.413 322.445L192.354 322.126C196.441 320.733 200.67 319.172 204.893 318.4C207.985 317.834 211.615 318.517 212.858 321.684C214.432 322.722 215.913 323.941 217.342 325.14C218.375 326.006 219.366 326.927 220.373 327.824L220.559 327.987C221.382 328.702 222.034 329.18 222.237 330.317C222.341 330.905 221.968 331.699 221.243 331.621C219.027 331.384 217.224 328.814 215.721 327.28C214.559 326.094 213.389 324.868 212.329 323.565C211.711 323.901 210.864 323.841 210.47 323.096C208.431 319.233 202.843 321.91 199.751 322.826L195.323 324.136C193.108 324.793 190.895 325.452 188.685 326.124C182.613 327.968 176.569 330.032 170.441 331.725C170.99 332.328 170.914 333.4 169.873 333.808C165.076 335.69 159.813 336.663 154.83 337.955C151.684 338.771 148.539 339.592 145.396 340.417C144.857 341.291 144.469 342.278 144.306 343.428C143.706 347.656 144.863 352.534 145.99 356.623L146.16 357.233C147.086 360.521 148.449 364.551 151.286 366.627C151.978 367.133 152.86 367.485 153.748 367.565C159.301 364.707 164.853 361.85 170.409 358.997C171.438 358.469 172.389 359.184 172.62 360.035C174.579 359.713 176.533 359.207 178.313 358.603C181.304 357.587 183.639 355.65 186.444 354.31C191.869 351.718 197.41 354.902 202.267 357.322L203.387 357.872C205.565 358.929 210.097 360.96 211.143 358.069C212.153 355.272 208.957 352.283 206.893 351.025C204.432 349.524 201.567 348.721 198.786 348.052C197.198 347.67 195.591 347.358 193.974 347.131C192.14 346.872 190.246 346.911 188.48 346.316C187.602 346.021 187.467 344.628 188.48 344.397C191.198 343.779 194.443 344.454 197.279 345.143L198.762 345.508C201.62 346.21 204.506 347.09 207.109 348.489C209.002 349.507 211 351.052 212.305 352.945C213.439 351.892 214.849 351.927 216.319 352.318L217.116 352.54C218.433 352.905 219.501 353.156 220.782 352.903C220.954 351.971 221.127 351.038 221.313 350.105C223.139 340.937 225.142 331.804 227.352 322.719C231.164 307.05 235.575 291.553 240.548 276.214L241.047 274.681C242.194 271.172 243.117 267.35 244.966 264.127C246.714 261.079 249.516 259.324 252.845 258.394C256.623 257.339 260.592 256.787 264.446 256.075C265.306 255.916 266.167 255.765 267.028 255.609C266.301 254.296 265.758 252.806 265.269 251.662L265.183 251.464C264.133 249.07 263.19 246.632 262.279 244.181L261.597 242.339C259.952 237.902 258.254 233.539 255.941 229.389C253.507 225.022 250.277 221.452 246.251 218.497C238.042 212.472 228.148 209.399 220.186 202.959C219.86 202.696 220.278 202.245 220.609 202.412C225.985 205.113 231.789 206.949 237.38 209.149L238.483 209.584C242.903 211.336 247.391 213.243 251.217 216.08C255.482 219.243 258.841 223.171 261.366 227.842C263.854 232.447 265.445 237.601 267.201 242.519L267.67 243.83C268.378 245.795 269.11 247.754 269.948 249.666C270.613 251.184 271.855 252.918 272.419 254.652C273.963 254.384 275.506 254.115 277.052 253.857C310.525 248.269 344.373 244.985 378.296 244.024C379.623 243.987 380.309 245.253 380.114 246.411C376.858 265.661 373.965 284.977 370.791 304.241C369.405 312.649 367.992 321.051 366.546 329.449C365.813 333.703 364.966 337.941 364.272 342.202C363.712 345.643 363.305 349.111 362.344 352.472C361.481 355.486 360.157 358.392 357.983 360.691C355.639 363.17 352.368 364.369 349.075 364.936C340.717 366.375 332.143 366.962 323.716 367.921L278.852 373.025C279.508 378.984 279.557 384.85 279.256 390.879L279.085 394.17C278.944 396.817 278.777 399.468 278.397 402.088C277.92 405.374 276.417 408.157 274.202 410.612C272.169 412.866 269.699 414.789 267.296 416.632C264.802 418.546 262.224 420.393 259.292 421.577L258.911 421.728C256.339 422.732 251.513 424.288 247.996 423.719C248.456 426.022 249.345 428.498 248.557 430.777C248.191 431.835 246.807 432.363 245.959 431.463C244.28 429.678 244.149 427.321 243.751 424.993C243.337 422.571 242.98 420.14 242.663 417.702C242.05 412.99 241.573 408.235 241.427 403.483C241.278 398.602 241.335 393.715 241.598 388.84C241.734 386.337 241.901 383.835 242.219 381.348C242.355 380.287 242.493 379.225 242.651 378.167C242.709 377.781 242.773 377.397 242.842 377.014L238.815 377.468C232.641 378.158 226.463 378.78 220.245 378.877C219.509 378.888 218.942 378.553 218.572 378.064C218.178 378.707 217.491 379.166 216.507 379.163C207.823 379.13 199.737 376.291 191.839 372.945C187.858 371.257 183.939 369.431 179.952 367.758C176.23 366.196 172.252 365.082 168.62 363.323L159.077 368.329C159.007 368.575 158.917 368.808 158.822 369.003C158.201 370.271 156.976 370.959 155.724 371.477C154.524 371.975 153.28 372.13 152.068 372.004C144.831 375.797 137.592 379.586 130.348 383.366L123.102 387.143C108.666 394.659 94.2876 402.299 79.7609 409.639L78.6915 410.177C73.6739 412.693 68.2861 415.243 62.7178 417.146C62.6187 418.556 62.6813 419.926 62.7994 421.418L62.8278 421.743C62.9938 423.506 63.3498 425.715 61.9356 426.97C61.1999 427.623 59.8858 427.625 59.3856 426.641C58.4779 424.857 59.2928 422.043 59.5804 420.105C59.6824 419.415 59.8069 418.706 59.9909 418.019C53.6073 419.919 47.0304 420.841 40.5344 419.773C34.2097 418.735 29.3112 414.751 25.3622 409.877C21.1945 404.735 18.2329 398.741 16.644 392.316C14.8356 385.005 14.7175 377.455 14.76 369.966C14.805 361.992 15.1 353.978 16.07 346.057C15.0073 345.807 13.8288 345.591 12.7549 345.666C12.223 346.517 11.1912 346.875 10.2589 346.764C8.2315 349 13.374 351.286 15.0173 351.858C15.588 352.057 15.5269 352.983 14.8687 352.955L14.4541 352.936C11.9148 352.801 9.29134 352.367 7.79831 350.007C6.60191 348.116 6.96135 345.875 8.38757 344.333C9.32957 335.426 11.5816 326.753 13.6775 318.064C15.7344 309.536 18.0218 301.063 20.4462 292.633L21.5331 288.86C25.3504 275.641 29.3404 262.315 34.606 249.622C37.2354 243.284 40.2644 237.062 44.3702 231.536C48.1974 226.384 52.716 221.976 57.9098 218.211C67.5924 211.191 78.954 206.95 90.1172 202.909L90.6169 202.728C96.4018 200.635 102.173 198.518 107.892 196.25C112.95 194.245 117.795 191.703 122.829 189.668C122.666 189.371 122.508 189.071 122.356 188.767L122.263 188.846C122.247 188.858 122.231 188.87 122.214 188.882C121.707 189.233 120.962 189.06 120.545 188.667C119.367 187.555 119.766 186.321 120.552 185.169L120.654 185.022C121.616 183.675 122.474 182.25 123.362 180.854L123.917 179.981C125.407 177.649 126.973 175.301 128.96 173.373C129.88 172.48 130.887 171.812 131.954 171.314C131.863 171.121 132.663 170.727 132.89 170.925C136.271 169.688 140.16 169.947 143.846 170.288M276.681 373.271L271.981 373.806C266.809 374.394 261.636 374.963 256.461 375.527L245.223 376.748C245.194 377.389 245.116 378.015 245.102 378.499C245.029 380.993 244.974 383.489 244.922 385.984C244.818 390.986 244.932 395.992 245.262 400.984C245.581 405.822 246.001 410.659 246.654 415.464L246.788 416.424L246.865 416.929C247.398 416.981 247.922 417.234 248.358 417.754C249.308 418.889 252.75 417.786 254.094 417.308C256.305 416.521 258.387 415.192 260.308 413.859C262.184 412.558 263.873 411.04 265.496 409.442L266.824 408.128C268.145 406.816 269.468 405.417 270.277 403.766C271.375 401.526 271.517 398.777 271.839 396.338C272.235 393.339 272.707 390.339 273.206 387.354M140.222 341.781L139.734 341.909C122.022 346.615 104.337 351.461 86.571 355.959C77.779 358.186 68.9453 360.25 60.1425 362.434L58.7173 362.791C51.7728 364.546 44.745 366.658 39.427 371.695C39.2307 371.881 38.9458 371.596 39.1305 371.399C44.8619 365.298 53.0132 362.715 60.8397 360.476C62.2864 360.062 63.735 359.658 65.1821 359.246C54.5381 355.452 43.7262 352.151 32.6647 349.796C29.8163 349.19 26.9348 348.745 24.0887 348.136C22.1038 347.711 20.1653 347.097 18.2014 346.588L16.6566 346.199L16.6361 351.082C16.6104 357.997 16.6227 364.906 16.9755 371.82L17.0422 373.101C17.4539 380.796 18.0963 388.65 20.8269 395.905C23.0458 401.801 26.5824 407.355 31.2075 411.649C33.5478 413.822 36.0639 415.513 39.1741 416.348C42.0619 417.123 45.0876 417.214 48.0563 417.007C62.2958 416.014 74.9712 408.279 87.3405 401.874C107.572 391.399 127.807 380.929 148.059 370.494C147.512 370.12 146.996 369.688 146.527 369.204C143.811 366.399 142.379 362.559 141.438 358.841C140.436 354.883 139.837 350.641 139.768 346.555M165.991 374.538C166.17 374.442 166.377 374.562 166.385 374.764C166.448 376.311 165.593 377.836 164.954 379.23L164.886 379.378C164.111 381.104 163.261 382.807 162.382 384.484C160.626 387.833 158.801 391.146 156.896 394.412C153.065 400.983 148.809 407.277 143.777 412.998C142.641 414.291 140.772 412.634 141.501 411.242C145.017 404.534 149.116 398.2 153.336 391.921C155.448 388.777 157.559 385.63 159.692 382.501C160.582 381.195 161.483 379.894 162.409 378.612L162.967 377.846M376.053 247.866C358.279 248.403 340.526 249.562 322.837 251.379C306.386 253.068 289.996 255.317 273.698 258.12C270.293 258.705 266.893 259.315 263.498 259.948L261.461 260.331C258.065 260.975 253.916 261.241 250.892 263.055C247.704 264.968 246.842 268.965 245.781 272.261C244.534 276.138 243.319 280.026 242.136 283.923C237.44 299.397 233.15 315.005 229.323 330.716C227.424 338.515 225.738 346.357 223.962 354.184C222.384 361.138 220.643 368.014 218.825 374.899C219.049 374.724 219.324 374.592 219.656 374.521C228.687 372.599 237.907 371.764 247.074 370.702L247.961 370.599C257.444 369.484 266.927 368.377 276.415 367.31L339.237 360.245C342.942 359.829 346.911 359.772 350.517 358.778C356.647 357.087 358.084 350.233 359.113 344.775L359.144 344.61C362.244 328.12 364.713 311.485 367.605 294.953M220.287 355.729C217.848 355.568 214.509 353.334 212.659 353.494C213.63 355.124 214.069 356.983 213.509 358.968C211.951 364.493 204.905 361.635 201.511 359.947C198.728 358.562 196.041 356.868 192.96 356.22C189.47 355.486 187.105 356.874 184.157 358.474C181.735 359.787 179.097 360.731 176.385 361.219C174.943 361.479 173.573 361.507 172.205 361.405C172.123 361.473 172.03 361.535 171.925 361.59L171.201 361.97C174.472 362.12 177.803 363.129 180.847 364.053C184.001 365.01 187.098 366.164 190.178 367.344L193.208 368.509C200.682 371.371 208.418 374.089 216.507 374.065C217.088 374.063 217.565 374.224 217.94 374.487M206.641 338.418C209.05 338.123 211.274 338.439 213.2 340.008C215.522 341.899 217.082 345.036 220.42 345.242C221.393 345.302 221.619 346.671 220.652 346.957C218.167 347.692 216.155 346.348 214.462 344.603L213.324 343.413C211.651 341.681 210.108 340.342 207.269 340.445C204.229 340.556 201.184 341.259 198.163 341.616C194.742 342.021 191.321 342.365 187.889 342.663C187.729 342.677 187.702 342.426 187.851 342.389L191.696 341.432M204.315 328.567L204.712 328.527C208.211 328.188 211.411 328.175 214.536 330.057L215.135 330.419C217.953 332.132 221.019 334.149 222.781 336.922C223.07 337.376 222.593 337.909 222.111 337.794C218.725 336.981 216.249 334.497 213.401 332.637C210.206 330.551 206.904 330.895 203.26 331.219C199.732 331.533 196.206 331.964 192.712 332.552C189.43 333.104 186.137 333.976 182.821 334.254L182.822 334.247C182.443 334.246 182.227 333.678 182.613 333.485C185.978 331.804 189.875 331.009 193.536 330.242M84.5021 233.424C84.4977 233.147 84.8869 233.043 85.0229 233.283C87.2995 237.288 88.4895 242.198 89.7023 246.611C90.9725 251.233 91.9979 255.902 92.9191 260.606C94.7848 270.131 95.779 279.601 95.8464 289.308C95.8557 290.694 93.5977 291.063 93.3769 289.643C91.9104 280.2 90.5054 270.748 89.0278 261.307C88.2843 256.559 87.419 251.83 86.591 247.096M107.04 240.4C106.872 239.848 107.676 239.663 107.882 240.168C112.451 251.383 113.998 264.093 111.065 275.924C110.616 277.734 107.965 276.95 108.303 275.163M165.973 230.435C165.95 230.021 166.487 229.956 166.689 230.241C168.854 233.291 169.752 237.376 173.55 238.952C175.446 239.739 177.58 239.602 179.256 240.932C180.376 241.821 181.235 243.224 180.394 244.571C180.123 245.006 179.364 245.224 178.996 244.751C178.459 244.062 178.174 243.238 177.445 242.721C176.416 241.993 175.028 241.948 173.848 241.606C172.321 241.163 170.976 240.389 169.874 239.238M202.14 179.56C202.363 179.447 202.577 179.519 202.72 179.712C202.924 179.987 202.899 180.254 202.649 180.443C202.983 181.124 203.376 182.831 203.433 183.079C203.661 184.087 203.903 185.088 204.157 186.088C204.669 188.106 205.117 190.139 205.629 192.158C206.172 194.297 206.819 196.414 207.539 198.5C207.586 198.635 207.637 198.773 207.69 198.913L207.772 199.125L207.793 199.093C207.939 198.861 208.244 199.023 208.208 199.267C208.174 199.49 208.129 199.712 208.091 199.934L208.166 200.134C208.637 201.402 208.96 202.737 208.096 203.855C207.772 204.273 207.417 204.521 206.973 204.595C206.263 206.938 205.371 209.237 204.416 211.445L204.137 212.09C202.732 215.312 201.235 218.492 198.999 221.235C196.557 224.229 193.2 226.274 191.073 229.556C190.084 231.082 189.395 232.687 188.837 234.411L188.626 235.065C188.23 236.285 187.772 237.466 186.629 238.182C186.264 238.41 185.717 238.337 185.423 238.026C183.077 235.545 185.532 230.912 186.947 228.51C188.913 225.169 191.758 223.033 194.607 220.512C197.678 217.796 199.637 214.162 201.532 210.582C202.693 208.389 203.813 206.148 204.993 203.946C203.76 202.856 203.366 200.693 202.948 199.189L202.91 199.054C202.22 196.645 201.672 194.174 201.325 191.693C200.992 189.306 200.853 186.954 200.941 184.555L200.966 183.943M206.722 190.918C206.45 190.544 206.901 190.122 207.274 190.199C209.546 190.669 211.766 192.044 213.805 193.156L214.023 193.274C215.65 194.151 217.288 195.226 218.142 196.931C219.071 198.784 218.995 200.918 218.868 202.932L218.856 203.12C218.701 205.535 218.676 208.044 218.165 210.415C217.903 211.629 216.804 211.971 215.864 211.684C214.746 215.215 211.605 217.816 209.311 220.602C206.385 224.154 206.936 228.95 207.241 233.228C207.365 234.96 205.211 235.452 204.101 234.528L201.544 232.404C201.118 232.05 200.693 231.695 200.269 231.338C199.905 231.032 199.545 230.724 199.188 230.412L198.655 229.942C198.418 229.73 197.375 228.564 197.07 228.516C196.331 228.399 194.576 230.346 193.975 230.957L193.899 231.033C192.768 232.142 191.746 233.335 190.795 234.6C190.619 234.833 190.277 234.64 190.402 234.371C191.255 232.544 192.247 230.798 193.424 229.163L193.662 228.838C194.445 227.782 195.497 225.918 196.879 225.607C198.568 225.226 200.253 226.919 201.482 227.859L201.56 227.918C202.144 228.356 202.722 228.802 203.298 229.252C203.238 226.067 203.64 222.848 205.285 220.104C206.444 218.168 208.182 216.734 209.668 215.071C211.323 213.218 212.187 210.942 213.685 209.013C213.878 208.765 214.144 208.631 214.432 208.588C214.49 207.038 214.718 205.471 214.895 203.937L214.946 203.478C215.124 201.811 215.546 199.775 214.73 198.214C213.959 196.74 212.19 195.699 210.88 194.698L209.811 193.869M133.003 173.293C132.319 173.688 131.68 174.18 131.1 174.795C129.275 176.732 127.97 179.142 126.699 181.46C126.016 182.709 125.356 183.971 124.667 185.216C124.367 185.758 124.059 186.294 123.747 186.83C123.603 187.076 123.174 187.566 122.962 187.869C123.198 188.199 123.442 188.525 123.691 188.846C123.785 188.969 130.334 196.103 132.617 198.895C136.112 203.171 139.236 207.688 141.907 212.523C144.523 217.258 146.514 222.27 148.937 227.097C150.15 229.513 151.504 231.912 153.231 234.003C153.297 234.085 153.368 234.162 153.436 234.242C154.095 232.462 155.783 230.556 156.612 229.462L156.69 229.359C158.571 226.824 160.557 224.365 162.586 221.948C164.439 219.741 166.34 217.581 168.286 215.458L169.019 214.663C170.375 213.198 172.098 211.006 174.083 209.959C173.87 209.58 173.624 209.205 173.341 208.835C171.481 206.404 168.851 204.64 166.257 203.048L164.574 202.025C158.231 198.159 151.988 194.115 146.481 189.093C143.568 186.436 140.695 183.652 138.247 180.553L137.381 179.457M143.586 171.379C140.616 171.628 137.408 171.569 134.663 172.537C137.104 174.844 139.423 177.334 141.806 179.68C142.018 178.094 142.451 176.526 142.819 174.98" fill="black"/>
<path fill-rule="evenodd" clip-rule="evenodd" d="M227.366 64.5215C225.928 55.8207 230.648 54.0154 227.366 45.7446C220.072 30.4194 200.195 31.0798 185.609 29.9014C169.34 29.2779 152.873 31.4257 137.875 37.9464C134.292 39.5037 130.847 41.3353 127.543 43.4162C124.687 45.2158 125.08 48.6374 126.881 50.5039C113.894 68.8939 121.322 93.5787 110.96 112.936C109.046 116.397 106.514 119.499 104.85 123.1C102.321 128.573 102.159 136.414 107.894 140.049C115.972 144.384 120.48 135.8 124.449 148.244C144.272 191.634 184.127 194.078 221.962 171.456C225.235 169.635 228.576 167.577 231.048 164.717C236.658 158.403 235.997 149.524 236.121 141.639C236.191 137.018 236.202 132.397 236.157 127.775C235.981 109.055 229.776 83.0873 227.366 64.5215Z" fill="#D08B5B"/>
<path fill-rule="evenodd" clip-rule="evenodd" d="M146.782 12.4809C169.626 2.11854 195.536 -1.81111 220.455 0.766444C232.754 2.03667 244.892 4.76186 256.443 9.18865L257.455 9.57993C260.306 10.6774 263.38 11.7667 265.547 14.0006C268.069 16.5968 268.776 20.5227 266.974 23.7298C265.573 26.2217 263.055 28.0092 260.369 28.9631C261.316 29.7379 262.213 30.602 263.055 31.5668C264.474 33.1833 264.582 35.4886 263.055 37.0832C260.112 40.1561 256.295 42.3795 252.182 43.4451C252.644 45.6763 252.395 48.1458 251.404 50.3695C248.561 56.7527 240.552 57.5134 234.389 57.1344L234.203 57.1226L233.86 61.0448C233.678 63.1344 232.426 64.7547 230.303 65.075C230.228 65.0862 230.154 65.0936 230.079 65.1007C233.439 77.2513 235.469 89.7775 237.343 102.23C238.322 108.73 239.198 115.245 240.037 121.765L240.315 123.938C241.209 130.967 242.327 138.066 242.714 145.147C243.06 151.572 241.835 157.707 237.875 162.892C234.322 167.54 229.476 171.023 224.265 173.608C212.491 179.452 200.099 183.803 187.077 185.822L186.208 185.955C181.182 186.722 176.003 187.369 171.03 185.978C166.661 184.756 162.08 181.605 163.067 176.543C163.398 174.833 165.79 174.759 166.609 176.081L166.798 176.384C167.781 177.943 168.858 179.392 170.573 180.197C172.58 181.143 174.908 181.407 177.102 181.434C183.229 181.505 189.61 179.977 195.51 178.447C206.528 175.586 217.843 170.922 226.869 163.857C230.709 160.854 233.793 157.1 234.881 152.269C236.225 146.313 234.989 139.802 234.378 133.816C233.121 121.465 231.625 109.137 230.046 96.8221L229.729 94.3593C228.4 84.064 227.003 73.7649 226.34 63.41C226.064 63.0338 225.878 62.6055 225.803 62.1361L225.699 61.4619C225.61 60.8846 225.595 60.3557 225.658 59.8677C225.662 57.9979 225.714 56.1392 225.822 54.269C225.84 53.9341 225.856 53.5989 225.867 53.2674C223.922 53.6958 221.963 54.0422 219.996 54.3364C206.17 56.4186 192.128 56.9401 178.189 55.9046C171.235 55.3864 164.333 54.4966 157.453 53.3829C153.952 52.8167 150.462 52.1909 146.983 51.4907C144.469 50.9878 142.007 50.3062 139.533 49.6655C136.982 53.3792 135.604 57.9495 135.872 62.4378C136.174 67.5594 139.586 72.2043 138.628 77.4376C137.73 82.3353 133.534 83.8539 129.391 85.0669L127.629 85.576C126.274 85.9717 125.289 86.3536 125.044 87.9825C124.623 90.7798 125.141 93.9272 125.249 96.7395C125.379 100.066 125.55 103.392 125.629 106.718C125.67 108.439 125.736 110.167 125.733 111.888C125.729 113.11 125.547 113.944 125.074 114.734C125.439 115.192 125.766 115.687 126.057 116.213C126.15 116.384 125.919 116.566 125.782 116.425C125.413 116.041 125.021 115.695 124.608 115.385C124.4 115.643 124.157 115.904 123.874 116.183L123.852 116.153C122.966 117.036 121.558 117.122 120.458 116.183L120.17 115.933C119.365 115.228 118.813 114.64 118.589 113.475C118.578 113.415 118.566 113.356 118.559 113.296C116.514 113.225 114.436 113.709 112.596 114.726C109.679 116.339 107.627 118.638 106.413 121.476C106.897 122.042 107.463 122.549 108.122 122.973C108.215 123.037 108.133 123.174 108.033 123.126C107.359 122.809 106.755 122.418 106.215 121.96C105.779 123.077 105.474 124.277 105.288 125.547C104.632 130.032 105.802 135.511 109.854 138.066C111.609 139.172 113.613 139.772 115.691 139.779C116.704 139.783 117.58 139.612 118.563 139.37C119.23 139.206 119.893 138.967 120.589 138.967C121.185 138.967 121.736 139.116 122.247 139.414L122.105 139.427C121.761 139.459 121.827 139.474 122.306 139.474C123.796 139.537 124.649 141.05 123.964 142.364L123.874 142.568C123.855 142.609 123.839 142.643 123.826 142.67L123.772 143.018C123.767 143.051 123.761 143.086 123.755 143.121L123.735 143.191C123.731 143.203 123.727 143.214 123.722 143.225L125.956 146.632C128.696 150.801 131.497 154.953 134.684 158.761C136.919 161.432 139.288 164.05 141.791 166.475C144.04 168.654 146.737 169.704 149.285 171.418C150.645 172.327 151.043 174.23 149.807 175.456C146.178 179.057 141.042 176.197 138.066 173.269C135.25 170.494 132.818 167.157 130.721 163.816C127 157.874 124.038 151.557 122.742 144.7C122.202 145.195 121.513 145.504 120.816 145.747C119.42 146.231 117.881 146.432 116.406 146.484C113.579 146.577 110.748 145.892 108.204 144.678C97.853 139.742 96.3333 124.962 102.662 116.246C101.808 113.772 101.332 111.087 100.814 108.797L100.578 107.773C97.9612 96.341 96.2045 84.3043 100.844 73.1019C101.44 71.6567 102.11 70.2487 102.904 68.9004C103.541 67.8164 104.636 66.6618 104.938 65.4288C105.608 62.7209 101.47 59.8752 100.263 57.726C98.8438 55.2043 98.6427 52.2282 100.576 49.9222C100.822 49.632 101.089 49.3634 101.38 49.1292C99.5478 45.8066 99.4621 41.6274 101.876 38.3496C103.463 36.1892 105.884 34.677 108.528 34.2188C110.145 33.9395 112.089 34.0437 113.866 34.5429C123.595 25.5102 134.695 17.9638 146.782 12.4809ZM109.421 125.502C112.018 123.212 114.886 122.012 118.425 122.314C121.982 122.619 126.265 124.091 128.355 127.141C130.005 129.551 126.642 133.086 124.22 131.276C122.015 129.626 120.544 127.763 117.806 126.877C115.348 126.083 112.304 125.573 109.731 126.028C109.448 126.076 109.165 125.726 109.421 125.502Z" fill="black"/>
<path fill-rule="evenodd" clip-rule="evenodd" d="M161.359 132.155C165.427 129.706 180.633 131.501 192.577 132.155C202.063 132.675 208.838 131.645 211.006 133.105C215.905 136.402 213.525 152.346 205.084 154.527C196.642 156.707 165.349 159.753 159.954 154.527C154.558 149.301 154.06 136.55 161.359 132.155Z" fill="white"/>
<path fill-rule="evenodd" clip-rule="evenodd" d="M166.627 127.938C173.012 127.163 179.202 129.118 185.444 130.103C188.739 130.623 192.039 131.011 195.374 131.156C196.045 131.185 196.716 131.202 197.388 131.216C197.45 130.625 197.781 130.082 198.497 129.757C199.966 129.091 201.142 128.791 202.755 128.855C204.231 128.914 205.712 129.065 207.166 129.332C209.806 129.816 212.457 130.914 214.388 132.822C218.857 137.237 218.177 144.329 214.724 149.137C207.59 159.074 194.57 159.535 183.419 159.406L182.39 159.392C172.236 159.247 157.709 160.761 153.096 149.209C151.4 144.961 151.636 140.037 153.713 135.963C156.19 131.103 161.405 128.572 166.627 127.938ZM198.343 144.483L198.252 144.487C193.571 144.667 188.89 144.794 184.207 144.877C184.347 146.08 184.49 147.283 184.653 148.483C184.782 149.428 184.919 150.371 185.062 151.313C185.123 151.712 185.345 152.332 185.282 152.727L185.259 152.883C185.5 152.992 185.718 153.167 185.881 153.421C185.937 153.509 185.978 153.598 186.019 153.686C189.655 153.715 193.569 153.644 197.276 152.983L197.283 152.903C197.351 152.429 197.548 152.11 197.809 151.892C198.07 150.382 198.046 148.772 198.147 147.274C198.209 146.343 198.278 145.413 198.343 144.483ZM180.629 144.94C177.255 144.998 173.879 145.042 170.506 145.001L168.975 144.977C169.298 146.712 169.65 148.441 169.942 150.188C170.248 152.008 168.645 153.166 167.259 153.119C167.414 153.144 167.57 153.171 167.725 153.193C172.058 153.805 176.557 153.643 180.954 153.638C180.717 152.257 180.813 150.699 180.778 149.547L180.771 149.368C180.704 147.892 180.656 146.416 180.629 144.94ZM157.71 144.622C157.827 145.524 158.055 146.407 158.396 147.229C159.836 150.702 163.138 152.323 166.632 153.006C166.026 152.796 165.544 152.293 165.423 151.432C165.12 149.29 165.011 147.113 165.003 144.938C162.568 144.915 160.117 144.863 157.71 144.622ZM211.041 143.88C209.308 144.289 207.293 144.102 205.593 144.179C203.999 144.252 202.405 144.315 200.812 144.379C200.887 145.467 200.96 146.555 201.039 147.642C201.142 149.047 201.152 150.532 201.421 151.931C204.628 150.836 207.501 149.081 209.657 146.275C210.194 145.575 210.675 144.755 211.041 143.88ZM165.895 133.636C163.009 134.32 160.278 135.763 158.81 138.404C157.939 139.971 157.556 141.828 157.629 143.658C160.068 143.374 162.549 143.266 165.018 143.177C165.026 142.733 165.037 142.288 165.05 141.845L165.088 140.709C165.156 138.543 165.189 135.822 165.895 133.636ZM180.831 133.901L179.561 133.758C176.033 133.356 172.506 132.934 168.977 133.176C168.467 133.211 167.948 133.267 167.429 133.343C168.052 135.593 168 138.237 168.26 140.465C168.361 141.326 168.488 142.18 168.629 143.031L169.241 143.003C173.028 142.797 176.818 142.671 180.607 142.521C180.607 141.81 180.61 141.098 180.622 140.385L180.636 139.673C180.679 137.854 180.561 135.805 180.831 133.901ZM198.55 133.612C194.855 134.208 191.035 134.335 187.405 134.34C185.955 134.341 184.506 134.252 183.058 134.124C183.152 134.895 183.201 135.675 183.272 136.436C183.415 137.973 183.579 139.507 183.756 141.04L183.915 142.381C188.572 142.17 193.229 141.942 197.886 141.706L198.543 141.67L198.727 139.092C198.853 137.373 198.991 135.655 199.185 133.944L199.039 133.891C198.867 133.82 198.705 133.723 198.55 133.612ZM200.155 134.252C200.359 136.682 200.471 139.123 200.621 141.557L203.691 141.394C204.202 141.366 204.714 141.337 205.226 141.308C207.215 141.193 209.771 140.591 211.737 141.153C211.888 139.365 211.376 137.623 209.763 136.422C206.93 134.313 203.324 135.064 200.155 134.252ZM189.667 112.524C194.238 109.906 205.707 107.23 206.434 115.457C206.768 119.242 203.953 122.379 200.667 123.778L200.544 123.83C197.461 125.097 191.998 126.528 189.331 123.78C187.111 121.493 190.055 117.393 192.814 119.266C194.232 120.229 197.216 119.52 198.797 119.062L198.896 119.033C200.604 118.531 202.879 116.925 202.174 114.823C201.549 112.964 198.891 112.624 197.226 112.564C194.741 112.475 192.323 113.052 189.861 113.24C189.471 113.269 189.351 112.705 189.667 112.524ZM208.602 99.296C214.806 99.0054 218.665 105.779 217.238 111.33C216.992 112.287 215.921 113.227 214.887 113.12L214.626 113.096C214.494 113.083 214.361 113.066 214.239 113.033C213.257 112.761 212.377 111.739 212.448 110.681L212.467 110.372C212.612 107.75 212.328 104.73 209.212 104.095C206.569 103.556 205.093 106.1 205.062 108.441C205.056 108.857 204.589 109.147 204.221 108.923C202.311 107.761 201.98 105.448 202.71 103.457C203.635 100.933 205.949 99.42 208.602 99.296ZM162.563 100.749C167.078 99.2425 171.948 101.649 174.135 105.641C174.901 105.863 175.667 106.454 175.561 107.359C175.407 108.661 175.175 109.482 174.272 110.469C172.86 112.014 170.215 111.224 169.628 109.323L169.603 109.237C168.937 106.779 166.231 105.157 163.766 106.017C160.887 107.022 160.97 110.063 158.951 111.835C158.714 112.043 158.429 112.076 158.144 111.939C155.999 110.902 156.385 107.782 157.149 105.997C158.153 103.653 160.102 101.569 162.563 100.749ZM156.414 87.0388C160.072 83.3058 169.612 79.6935 172.115 86.587C172.592 87.9 171.577 89.6704 170.21 89.9427C167.971 90.3881 165.985 89.4163 163.761 89.5907C161.961 89.7326 160.083 90.3341 158.644 91.4493C154.658 94.5379 153.781 99.7619 151.003 103.693C150.868 103.885 150.606 103.804 150.581 103.578C149.948 97.8552 152.407 91.1271 156.414 87.0388ZM204.127 83.364C206.554 82.5065 209.304 82.5799 211.744 83.3405C214.202 84.1071 216.459 85.5627 218.198 87.4646C218.987 88.328 219.717 89.2808 220.303 90.2951C220.614 90.8326 220.941 91.9429 221.294 92.6041C223.207 93.7083 224.024 96.2244 222.312 98.0144L222.235 98.0929L222.006 98.3201C221.085 99.2312 219.697 99.6261 218.441 99.2621C215.629 98.4486 215.288 96.2343 214.315 93.8839C213.672 92.3314 212.57 90.9577 211.235 89.9487C208.079 87.5648 202.904 86.8053 199.104 87.9287C198.902 87.9887 198.664 87.7309 198.809 87.5439C199.529 86.6113 199.944 85.8458 200.908 85.0934C201.886 84.3298 202.954 83.7782 204.127 83.364Z" fill="black"/>
</svg>
